#!OML:ASF I:\golf\golf\golf 2\Subject 1\2002-09-07\Subject1.ASF
:FULLY-SPECIFIED
:DEGREES
330
root -5.8577 17.9282 -4.21037 -165.081 -8.57609 -175.19
lowerback -12.3522 17.3274 14.9798
upperback -17.2249 18.6839 -0.548316
thorax -7.67151 6.3235 -6.15839
lowerneck -9.62934 -20.318 -5.85482
upperneck 12.6698 -26.9429 -0.144722
head 6.09853 -13.4647 -1.52215
rclavicle -3.57812e-014 -9.54166e-014
rhumerus 111.911 22.8001 -52.435
rradius 71.2532
rwrist 12.4002
rhand -47.6791 27.9056
rfingers 7.12502
rthumb -20.36 -1.04713
lclavicle -3.57812e-014 -9.54166e-014
lhumerus 75.879 25.049 63.246
lradius 79.1169
lwrist 20.8319
lhand -32.7117 13.2683
lfingers 7.12502
lthumb -185.936 -136.835
rfemur 23.128 -10.7269 20.9939
rtibia 4.77083e-014
rfoot 44.0545 -22.3846
rtoes 23.9649
lfemur -29.5413 -18.8531 -13.5044
ltibia 29.677
lfoot 41.0191 -46.5006
ltoes 53.0402
331
root -5.86069 17.9261 -4.21574 -165.064 -8.64383 -175.289
lowerback -12.3014 17.23 14.9698
upperback -17.1276 18.5895 -0.503556
thorax -7.61745 6.29998 -6.13231
lowerneck -9.96302 -20.1888 -5.61997
upperneck 12.6652 -26.7474 -0.240783
head 6.1013 -13.3595 -1.58128
rclavicle 4.69132e-014 6.59965e-014
rhumerus 111.624 22.7989 -52.6303
rradius 71.431
rwrist 11.9861
rhand -47.8667 28.1895
rfingers 7.12502
rthumb -20.5403 -0.743885
lclavicle 4.69132e-014 6.59965e-014
lhumerus 75.5485 25.352 62.3265
lradius 78.8676
lwrist 20.7561
lhand -32.4963 13.4391
lfingers 7.12502
lthumb -185.728 -136.658
rfemur 23.1458 -10.6635 20.9595
rtibia -1.59028e-014
rfoot 44.1192 -22.015
rtoes 23.2513
lfemur -29.5124 -18.9006 -13.6186
ltibia 29.6696
lfoot 41.0475 -46.5077
ltoes 52.993
332
root -5.86325 17.9255 -4.21856 -164.972 -8.67736 -175.389
lowerback -12.2807 17.1797 14.932
upperback -17.0891 18.54 -0.494083
thorax -7.60421 6.28668 -6.11881
lowerneck -10.0143 -20.0797 -5.40782
upperneck 12.5117 -26.6033 -0.279337
head 6.02442 -13.2847 -1.58788
rclavicle 1.47101e-014 -2.46493e-014
rhumerus 111.252 22.7382 -52.8034
rradius 71.5631
rwrist 11.6122
rhand -48.0799 28.1847
rfingers 7.12502
rthumb -20.7452 -0.726452
lclavicle 1.47101e-014 -2.46493e-014
lhumerus 75.0545 25.6167 61.2667
lradius 78.7215
lwrist 21.1908
lhand -32.4005 13.8521
lfingers 7.12502
lthumb -185.635 -136.243
rfemur 23.0648 -10.5716 20.9439
rtibia -9.85972e-014
rfoot 44.2292 -21.663
rtoes 21.9856
lfemur -29.5961 -18.8915 -13.7254
ltibia 29.6888
lfoot 41.5375 -45.8956
ltoes 53.5832
333
root -5.86423 17.9241 -4.21752 -164.88 -8.75733 -175.37
lowerback -12.2245 17.1811 15.045
upperback -17.0574 18.5537 -0.487395
thorax -7.56694 6.29047 -6.16712
lowerneck -10.0827 -20.0572 -5.39098
upperneck 12.425 -26.5665 -0.234584
head 6.01058 -13.2601 -1.57511
rclavicle -1.51076e-013 -7.87187e-014
rhumerus 110.857 22.5759 -52.8934
rradius 71.647
rwrist 11.3289
rhand -48.0153 27.9994
rfingers 7.12502
rthumb -20.6831 -0.918492
lclavicle -1.51076e-013 -7.87187e-014
lhumerus 74.6398 25.7269 60.4305
lradius 78.5203
lwrist 21.5522
lhand -32.4115 14.0482
lfingers 7.12502
lthumb -185.646 -136.047
rfemur 22.9459 -10.504 21.0854
rtibia 1.27222e-014
rfoot 44.3176 -21.5886
rtoes 21.2274
lfemur -29.7282 -18.801 -13.7057
ltibia 29.7345
lfoot 41.9445 -45.4135
ltoes 54.0937
334
root -5.86412 17.9223 -4.21497 -164.836 -8.8117 -175.336
lowerback -12.1089 17.1501 15.1527
upperback -17.0059 18.5402 -0.411399
thorax -7.56805 6.28245 -6.16133
lowerneck -10.1384 -20.0416 -5.57507
upperneck 12.4059 -26.5305 -0.106923
head 6.05391 -13.2355 -1.52856
rclavicle 6.71892e-014 3.65764e-014
rhumerus 110.521 22.4879 -52.9399
rradius 71.7092
rwrist 10.9386
rhand -47.7828 27.821
rfingers 7.12502
rthumb -20.4597 -1.12105
lclavicle 6.71892e-014 3.65764e-014
lhumerus 74.1877 25.8566 59.633
lradius 78.283
lwrist 21.8188
lhand -32.0885 13.92
lfingers 7.12502
lthumb -185.334 -136.167
rfemur 22.883 -10.4131 21.241
rtibia -1.90833e-014
rfoot 44.0253 -22.2241
rtoes 21.9487
lfemur -29.8051 -18.6849 -13.7011
ltibia 29.8031
lfoot 41.7232 -45.5679
ltoes 53.9997
335
root -5.86426 17.9241 -4.21186 -164.809 -8.85861 -175.282
lowerback -11.9437 17.1151 15.2764
upperback -16.9845 18.5274 -0.327259
thorax -7.62983 6.26377 -6.1694
lowerneck -10.0725 -20.0082 -5.74092
upperneck 12.3356 -26.4763 -0.00347008
head 6.05556 -13.2074 -1.47086
rclavicle -1.82882e-014 1.59028e-014
rhumerus 110.153 22.401 -52.9969
rradius 71.6784
rwrist 10.5303
rhand -47.6701 27.4873
rfingers 7.12502
rthumb -20.3514 -1.46632
lclavicle -1.82882e-014 1.59028e-014
lhumerus 73.628 25.9625 58.6735
lradius 78.0499
lwrist 22.2559
lhand -31.4307 13.8104
lfingers 7.12502
lthumb -184.699 -136.262
rfemur 22.8444 -10.3133 21.4207
rtibia -4.45278e-014
rfoot 43.395 -23.3217
rtoes 23.0973
lfemur -29.8857 -18.5439 -13.6962
ltibia 29.8857
lfoot 41.4819 -45.7236
ltoes 53.898
336
root -5.86425 17.9267 -4.20751 -164.764 -8.91697 -175.29
lowerback -11.7597 17.0637 15.3454
upperback -16.9758 18.5086 -0.297394
thorax -7.71248 6.24543 -6.21747
lowerneck -10.0448 -19.9541 -5.683
upperneck 12.2416 -26.4028 -0.0136647
head 6.01063 -13.1714 -1.46086
rclavicle 2.38542e-014 1.98785e-014
rhumerus 109.76 22.2363 -53.0942
rradius 71.5949
rwrist 10.1301
rhand -47.4667 26.8933
rfingers 7.12502
rthumb -20.1559 -2.08107
lclavicle 2.38542e-014 1.98785e-014
lhumerus 73.1098 25.9555 57.634
lradius 77.738
lwrist 22.6989
lhand -31.5722 14.1869
lfingers 7.12502
lthumb -184.836 -135.888
rfemur 22.8129 -10.2373 21.5395
rtibia -8.26944e-014
rfoot 42.8608 -24.2212
rtoes 23.808
lfemur -29.9635 -18.4387 -13.7339
ltibia 29.9325
lfoot 41.4882 -45.6173
ltoes 54.0171
337
root -5.8627 17.927 -4.20266 -164.679 -8.92822 -175.373
lowerback -11.5804 16.9971 15.324
upperback -16.9475 18.4809 -0.277638
thorax -7.78967 6.23593 -6.23638
lowerneck -10.1819 -19.8853 -5.58207
upperneck 12.2544 -26.2973 -0.0909145
head 6.01049 -13.1184 -1.49366
rclavicle 5.00937e-014 -1.27222e-014
rhumerus 109.433 22.0901 -53.2222
rradius 71.4751
rwrist 9.63616
rhand -47.0284 26.1333
rfingers 7.12502
rthumb -19.7346 -2.8849
lclavicle 5.00937e-014 -1.27222e-014
lhumerus 72.6349 25.9525 56.6803
lradius 77.4438
lwrist 23.1398
lhand -31.9274 14.7612
lfingers 7.12502
lthumb -185.179 -135.322
rfemur 22.7431 -10.1305 21.5681
rtibia -1.30403e-013
rfoot 42.4165 -25.2048
rtoes 25.1081
lfemur -30.0227 -18.3094 -13.8413
ltibia 29.909
lfoot 41.6274 -45.4635
ltoes 54.1728
